<svg width="92" height="46" viewBox="0 0 92 46" fill="none" xmlns="http://www.w3.org/2000/svg">
<g opacity="0.4">
<path d="M81.0642 29.1508C75.8702 32.1493 69.2442 30.4187 66.172 25.2952C63.0435 20.0781 64.8234 13.1939 70.0905 10.1508C70.2528 10.0574 70.4158 9.96846 70.5802 9.88411C71.1018 9.61656 70.9266 8.82908 70.3408 8.8052C67.6795 8.69683 64.9544 9.33515 62.4894 10.8077C55.8407 14.7798 53.6056 23.415 57.4867 30.1173C61.4134 36.8983 70.0918 39.2191 76.8802 35.2999C79.2945 33.9061 81.144 31.9103 82.3501 29.6117C82.6234 29.0909 82.0315 28.5423 81.5377 28.8613C81.3828 28.9613 81.2252 29.0577 81.0642 29.1508Z" fill="white"/>
<path d="M81.0642 29.1508C75.8702 32.1493 69.2442 30.4187 66.172 25.2952C63.0435 20.0781 64.8234 13.1939 70.0905 10.1508C70.2528 10.0574 70.4158 9.96846 70.5802 9.88411C71.1018 9.61656 70.9266 8.82908 70.3408 8.8052C67.6795 8.69683 64.9544 9.33515 62.4894 10.8077C55.8407 14.7798 53.6056 23.415 57.4867 30.1173C61.4134 36.8983 70.0918 39.2191 76.8802 35.2999C79.2945 33.9061 81.144 31.9103 82.3501 29.6117C82.6234 29.0909 82.0315 28.5423 81.5377 28.8613C81.3828 28.9613 81.2252 29.0577 81.0642 29.1508Z" fill="white" fill-opacity="0.6"/>
<path d="M81.0642 29.1517C76.5515 31.7571 70.957 30.7919 67.5526 27.1328C64.6016 29.7474 61.1247 31.1207 57.977 30.9027C62.0999 37.0726 70.3617 39.0645 76.8809 35.3008C79.2945 33.9069 81.1447 31.9112 82.3502 29.6126C82.6235 29.0918 82.0322 28.5432 81.5377 28.8623C81.3835 28.9621 81.2259 29.0587 81.0642 29.1517Z" fill="white" fill-opacity="0.8"/>
</g>
<path d="M81.0642 29.1508C75.8702 32.1493 69.2442 30.4187 66.172 25.2952C63.0435 20.0781 64.8234 13.1939 70.0905 10.1508C70.2528 10.0574 70.4158 9.96846 70.5802 9.88411C71.1018 9.61656 70.9266 8.82908 70.3408 8.8052C67.6795 8.69683 64.9544 9.33515 62.4894 10.8077C55.8407 14.7798 53.6056 23.415 57.4867 30.1173C61.4134 36.8983 70.0918 39.2191 76.8802 35.2999C79.2945 33.9061 81.144 31.9103 82.3501 29.6117C82.6234 29.0909 82.0315 28.5423 81.5377 28.8613C81.3828 28.9613 81.2252 29.0577 81.0642 29.1508Z" fill="#FFE07D"/>
<path d="M81.0642 29.1508C75.8702 32.1493 69.2442 30.4187 66.172 25.2952C63.0435 20.0781 64.8234 13.1939 70.0905 10.1508C70.2528 10.0574 70.4158 9.96846 70.5802 9.88411C71.1018 9.61656 70.9266 8.82908 70.3408 8.8052C67.6795 8.69683 64.9544 9.33515 62.4894 10.8077C55.8407 14.7798 53.6056 23.415 57.4867 30.1173C61.4134 36.8983 70.0918 39.2191 76.8802 35.2999C79.2945 33.9061 81.144 31.9103 82.3501 29.6117C82.6234 29.0909 82.0315 28.5423 81.5377 28.8613C81.3828 28.9613 81.2252 29.0577 81.0642 29.1508Z" fill="#FFE07D"/>
<path d="M81.0642 29.1517C76.5515 31.7571 70.957 30.7919 67.5526 27.1328C64.6016 29.7474 61.1247 31.1207 57.977 30.9027C62.0999 37.0726 70.3617 39.0645 76.8809 35.3008C79.2945 33.9069 81.1447 31.9112 82.3502 29.6126C82.6235 29.0918 82.0322 28.5432 81.5377 28.8623C81.3835 28.9621 81.2259 29.0587 81.0642 29.1517Z" fill="#FFD064"/>
<path d="M12.1791 23C12.1791 22.5403 11.8065 22.1676 11.3467 22.1676H9.62653C9.1668 22.1676 8.79413 22.5403 8.79413 23C8.79413 23.4597 9.1668 23.8324 9.62653 23.8324H11.3467C11.8065 23.8324 12.1791 23.4597 12.1791 23ZM36.3735 22.1676H34.6533C34.1936 22.1676 33.8209 22.5403 33.8209 23C33.8209 23.4597 34.1936 23.8324 34.6533 23.8324H36.3735C36.8332 23.8324 37.2059 23.4597 37.2059 23C37.2059 22.5403 36.8332 22.1676 36.3735 22.1676ZM23 8.79411C22.5403 8.79411 22.1676 9.16678 22.1676 9.62651V11.3467C22.1676 11.8064 22.5403 12.1791 23 12.1791C23.4597 12.1791 23.8324 11.8064 23.8324 11.3467V9.62651C23.8324 9.16678 23.4597 8.79411 23 8.79411ZM23 33.8209C22.5403 33.8209 22.1676 34.1936 22.1676 34.6533V36.3735C22.1676 36.8332 22.5403 37.2059 23 37.2059C23.4597 37.2059 23.8324 36.8332 23.8324 36.3735V34.6533C23.8324 34.1936 23.4597 33.8209 23 33.8209ZM14.1713 30.6516L12.9942 31.8287C12.6691 32.1537 12.6691 32.6808 12.9942 33.0058C13.3192 33.3309 13.8463 33.3309 14.1713 33.0058L15.3485 31.8287C15.6736 31.5036 15.6736 30.9766 15.3485 30.6516C15.0235 30.3264 14.4964 30.3264 14.1713 30.6516ZM31.8287 15.3484L33.0058 14.1713C33.3309 13.8463 33.3309 13.3192 33.0058 12.9942C32.6808 12.6691 32.1537 12.6691 31.8287 12.9942L30.6516 14.1713C30.3265 14.4964 30.3265 15.0234 30.6516 15.3484C30.9765 15.6736 31.5037 15.6735 31.8287 15.3484ZM14.1713 12.9942C13.8463 12.6691 13.3192 12.6691 12.9942 12.9942C12.6691 13.3192 12.6691 13.8463 12.9942 14.1713L14.1713 15.3484C14.4964 15.6735 15.0235 15.6735 15.3485 15.3484C15.6736 15.0234 15.6736 14.4964 15.3485 14.1713L14.1713 12.9942ZM31.8287 30.6516C31.5037 30.3264 30.9766 30.3264 30.6516 30.6516C30.3265 30.9766 30.3265 31.5036 30.6516 31.8287L31.8287 33.0058C32.1537 33.3309 32.6808 33.3309 33.0058 33.0058C33.3309 32.6808 33.3309 32.1537 33.0058 31.8287L31.8287 30.6516ZM18.8591 32.9972C18.4345 32.8213 17.9475 33.023 17.7715 33.4477L17.1344 34.9857C16.9585 35.4104 17.1602 35.8973 17.5849 36.0733C18.011 36.2498 18.4972 36.0461 18.6724 35.6227L19.3095 34.0848C19.4855 33.6601 19.2838 33.1731 18.8591 32.9972ZM28.4151 9.92673C27.9905 9.75071 27.5035 9.95243 27.3276 10.3773L26.6905 11.9152C26.5145 12.3399 26.7162 12.8269 27.141 13.0028C27.5663 13.179 28.0528 12.9763 28.2285 12.5523L28.8656 11.0143C29.0416 10.5896 28.8398 10.1027 28.4151 9.92673ZM10.3773 18.6724L11.9152 19.3095C12.0194 19.3527 12.1273 19.3731 12.2334 19.3731C12.5601 19.3731 12.87 19.1796 13.0028 18.859C13.1787 18.4344 12.977 17.9474 12.5523 17.7715L11.0143 17.1344C10.5895 16.9584 10.1027 17.1601 9.92674 17.5849C9.75086 18.0095 9.95252 18.4965 10.3773 18.6724ZM35.6227 27.3276L34.0848 26.6905C33.66 26.5145 33.1731 26.7162 32.9972 27.1409C32.8213 27.5656 33.023 28.0526 33.4477 28.2285L34.9857 28.8656C35.4118 29.0421 35.8979 28.8384 36.0733 28.4151C36.2492 27.9905 36.0475 27.5035 35.6227 27.3276ZM28.2285 33.4477C28.0526 33.0229 27.5657 32.8212 27.141 32.9971C26.7162 33.1731 26.5145 33.66 26.6905 34.0847L27.3276 35.6227C27.5031 36.0465 27.9896 36.2495 28.4151 36.0732C28.8398 35.8972 29.0415 35.4103 28.8656 34.9856L28.2285 33.4477ZM18.6724 10.3773C18.4965 9.9525 18.0096 9.75078 17.5849 9.92673C17.1602 10.1027 16.9585 10.5896 17.1344 11.0143L17.7715 12.5523C17.947 12.9761 18.4336 13.1791 18.8591 13.0028C19.2838 12.8269 19.4855 12.3399 19.3095 11.9152L18.6724 10.3773ZM32.9972 18.859C33.1728 19.2829 33.6592 19.4858 34.0848 19.3095L35.6227 18.6724C36.0475 18.4965 36.2492 18.0095 36.0733 17.5849C35.8974 17.1602 35.4105 16.9584 34.9857 17.1344L33.4477 17.7715C33.023 17.9474 32.8213 18.4344 32.9972 18.859ZM13.0028 27.1409C12.8269 26.7162 12.34 26.5145 11.9152 26.6905L10.3773 27.3276C9.95252 27.5035 9.75086 27.9905 9.92674 28.4151C10.1023 28.839 10.5888 29.0419 11.0143 28.8656L12.5523 28.2285C12.977 28.0526 13.1787 27.5656 13.0028 27.1409Z" fill="#121212" fill-opacity="0.32"/>
<path d="M23.0013 32.1574C28.0581 32.1574 32.1574 28.0581 32.1574 23.0013C32.1574 17.9445 28.0581 13.8452 23.0013 13.8452C17.9445 13.8452 13.8452 17.9445 13.8452 23.0013C13.8452 28.0581 17.9445 32.1574 23.0013 32.1574Z" fill="#121212" fill-opacity="0.32"/>
</svg>
