<svg width="16" height="16" viewBox="0 0 16 16" fill="none" xmlns="http://www.w3.org/2000/svg">
<g clip-path="url(#clip0)">
<path d="M10.2705 11.4561C10.2074 11.3799 10.1133 11.3359 10.0143 11.3359H5.98178C5.88281 11.3359 5.78874 11.3799 5.72559 11.4561C5.66212 11.5323 5.63606 11.6325 5.65396 11.7298C6.13315 14.3255 7.0534 16.0026 7.99806 16.0026C8.94271 16.0026 9.86296 14.3255 10.3421 11.7298C10.36 11.6325 10.334 11.5323 10.2705 11.4561Z" fill="white"/>
<path d="M15.6191 5.56772C15.5752 5.42969 15.447 5.33594 15.3018 5.33594H11.5482C11.4541 5.33594 11.3643 5.37566 11.3011 5.44562C11.2377 5.51562 11.2071 5.60903 11.2165 5.70278C11.2937 6.4684 11.3327 7.24249 11.3327 8.00259C11.3327 8.76268 11.2937 9.53677 11.2165 10.3024C11.2071 10.3961 11.2377 10.4896 11.3011 10.5595C11.3643 10.6295 11.4541 10.6692 11.5482 10.6692H15.3018C15.447 10.6692 15.5752 10.5755 15.6192 10.4375C15.8714 9.64746 15.9994 8.82846 15.9994 8.00262C15.9994 7.17678 15.8714 6.35778 15.6191 5.56772Z" fill="white"/>
<path d="M11.0393 4.38945C11.0663 4.54992 11.2053 4.66745 11.3681 4.66745H14.7327C14.8502 4.66745 14.9592 4.60526 15.0194 4.50436C15.0793 4.40311 15.0816 4.27779 15.0253 4.17461C14.0246 2.34092 12.3056 0.944137 10.3081 0.342574C10.1795 0.302855 10.038 0.346793 9.95236 0.452605C9.86739 0.55873 9.85501 0.705543 9.92111 0.824012C10.4068 1.69445 10.7935 2.9272 11.0393 4.38945Z" fill="white"/>
<path d="M10.2091 5.33252H5.78921C5.61896 5.33252 5.47605 5.46077 5.45783 5.63005C5.37483 6.39958 5.33252 7.19677 5.33252 7.99921C5.33252 8.80165 5.37483 9.59884 5.45783 10.3684C5.47605 10.5377 5.61896 10.6659 5.78921 10.6659H10.2091C10.3794 10.6659 10.5223 10.5377 10.5405 10.3684C10.6235 9.59884 10.6658 8.80165 10.6658 7.99921C10.6658 7.19677 10.6235 6.39958 10.5405 5.63005C10.5223 5.46077 10.3794 5.33252 10.2091 5.33252Z" fill="white"/>
<path d="M1.26304 4.66753H4.62764C4.79039 4.66753 4.92939 4.55003 4.95642 4.38953C5.2022 2.92728 5.58892 1.69453 6.07457 0.824096C6.14067 0.705596 6.12829 0.558783 6.04332 0.45269C5.95804 0.347221 5.81707 0.302627 5.68754 0.342658C3.69014 0.944252 1.97104 2.34103 0.970386 4.17472C0.914073 4.27791 0.916354 4.40325 0.976261 4.50447C1.03648 4.60538 1.14551 4.66753 1.26304 4.66753Z" fill="white"/>
<path d="M4.69825 10.5562C4.76172 10.4862 4.79231 10.3928 4.78288 10.299C4.70572 9.53337 4.66666 8.75928 4.66666 7.99918C4.66666 7.23909 4.70572 6.46499 4.78288 5.69936C4.79231 5.60561 4.76172 5.51218 4.69825 5.44221C4.63509 5.37221 4.54525 5.33252 4.45119 5.33252H0.697594C0.552406 5.33252 0.424156 5.42627 0.380219 5.5643C0.127937 6.35433 0 7.17334 0 7.99918C0 8.82503 0.127937 9.64403 0.380219 10.4341C0.424156 10.5721 0.552406 10.6659 0.697594 10.6659H4.45119C4.54525 10.6658 4.63509 10.6262 4.69825 10.5562Z" fill="white"/>
<path d="M4.95639 11.61C4.92935 11.4496 4.79035 11.332 4.6276 11.332H1.26304C1.14554 11.332 1.03648 11.3942 0.976261 11.4951C0.916354 11.5964 0.914073 11.7217 0.970386 11.8249C1.97104 13.6585 3.6901 15.0553 5.68751 15.6569C5.71907 15.6667 5.75132 15.6712 5.78354 15.6712C5.88282 15.6712 5.97885 15.6266 6.04332 15.5469C6.12829 15.4408 6.14067 15.2939 6.07457 15.1755C5.58889 14.305 5.20217 13.0722 4.95639 11.61Z" fill="white"/>
<path d="M14.7326 11.332H11.3681C11.2053 11.332 11.0663 11.4495 11.0393 11.61C10.7935 13.0723 10.4068 14.305 9.92111 15.1755C9.85501 15.294 9.86739 15.4408 9.95236 15.5469C10.0168 15.6266 10.1128 15.6712 10.2121 15.6712C10.244 15.6712 10.2766 15.6667 10.3082 15.6569C12.3056 15.0553 14.0247 13.6585 15.0253 11.8249C15.0816 11.7217 15.0793 11.5963 15.0194 11.4951C14.9592 11.3942 14.8502 11.332 14.7326 11.332Z" fill="white"/>
<path d="M5.72947 4.54656C5.79262 4.62275 5.88669 4.66669 5.98565 4.66669H10.0182C10.1172 4.66669 10.2112 4.62275 10.2744 4.54656C10.3379 4.47038 10.3639 4.37012 10.346 4.27281C9.86684 1.67709 8.94659 0 8.00194 0C7.05728 0 6.13703 1.67709 5.65787 4.27278C5.63997 4.37013 5.666 4.47038 5.72947 4.54656Z" fill="white"/>
</g>
<defs>
<clipPath id="clip0">
<rect width="16" height="16" fill="white"/>
</clipPath>
</defs>
</svg>
