<svg width="16" height="16" viewBox="0 0 16 16" fill="none" xmlns="http://www.w3.org/2000/svg">
<path d="M12.3428 4C10.0729 4 8.57067 5.91064 7.24538 7.59671C6.11309 9.03706 5.04384 10.3971 3.74156 10.3971C2.38793 10.3971 1.55684 8.96491 1.55684 7.93816C1.55684 6.98618 2.46856 5.60274 3.89748 5.60274C5.28402 5.60274 6.00636 6.74517 6.04279 6.80373C6.26742 7.17796 6.74436 7.29572 7.10969 7.06634C7.47683 6.83607 7.59314 6.34298 7.36936 5.96502C7.32186 5.88498 6.17997 4.00011 3.89748 4.00011C1.60072 4.00011 0 6.07577 0 7.93827C0 9.85943 1.53661 12 3.74145 12C5.78632 12 7.14335 10.2741 8.45543 8.60493C9.66921 7.06129 10.8158 5.60285 12.3428 5.60285C13.2513 5.60285 13.8483 5.92018 14.1674 6.57215C14.4439 7.13794 14.4437 7.77818 14.4435 8C14.4435 8.12719 14.3782 8.76513 14.0759 9.33958C13.7313 9.99397 13.2419 10.2986 12.5348 10.2986C11.1109 10.2986 10.3416 9.34572 10.0519 8.98684C9.97659 8.89342 9.92238 8.82621 9.84996 8.76239C9.52382 8.47478 9.03218 8.51338 8.75227 8.84956C8.48238 9.17379 8.50837 9.65581 8.80318 9.94759C8.81724 9.96403 8.83418 9.98564 8.85431 10.0107C9.23188 10.4785 10.3799 11.9011 12.5345 11.9011C15.1531 11.9011 16 9.27248 16 7.98903C16.0002 7.1716 15.8515 6.45252 15.5576 5.85132C15.1448 5.00702 14.2519 4 12.3428 4Z" fill="white"/>
</svg>
