<svg width="16" height="16" viewBox="0 0 16 16" fill="none" xmlns="http://www.w3.org/2000/svg">
<g clip-path="url(#clip0)">
<path d="M8.00002 0C3.58886 0 0 3.58886 0 8.00002C0 12.4112 3.58886 16 8.00002 16C12.4112 16 16 12.4112 16 8.00002C16 3.58886 12.4111 0 8.00002 0ZM8.52039 12.7466C8.14032 12.81 7.38405 12.9682 7.00001 13C6.67493 13.027 6.36817 12.8409 6.18117 12.5738C5.99368 12.3067 5.94875 11.9649 6.06006 11.6582L7.57227 7.50003H6C5.99865 6.63357 6.64856 5.99649 7.47979 5.75199C7.87647 5.63527 8.61553 5.47556 8.99999 5.50004C9.23033 5.51469 9.63183 5.6592 9.81883 5.92632C10.0063 6.19341 10.0512 6.53521 9.93994 6.84185L8.42773 11H9.99952C9.99982 11.8655 9.37415 12.6043 8.52039 12.7466ZM8.99999 5.00002C8.44769 5.00002 7.99998 4.55225 7.99998 4.00001C7.99998 3.44771 8.44769 3 8.99999 3C9.5523 3 10 3.44771 10 4.00001C10 4.55228 9.55233 5.00002 8.99999 5.00002Z" fill="white" fill-opacity="0.8"/>
</g>
<defs>
<clipPath id="clip0">
<rect width="16" height="16" fill="white"/>
</clipPath>
</defs>
</svg>
