<svg width="115" height="51" viewBox="0 0 115 51" fill="none" xmlns="http://www.w3.org/2000/svg">
<path d="M11.407 50.9573C15.9107 50.4266 21.0078 40.917 23.3207 35.8305L22.0115 35.0344C21.7933 35.742 20.4405 38.617 16.251 44.4554C11.0142 51.7533 8.13394 47.3746 6.56289 44.4554C4.99184 41.5362 2.89712 26.8403 6.56289 18.0827C10.2287 9.32517 14.3175 16.898 16.251 19.5096C17.8654 21.6901 23.0044 31.411 25.4483 36.0551C28.2849 40.7877 34.3442 48.5953 37.5911 40.7401C39.2533 36.7184 39.3469 33.0528 39.1489 29.8711C38.8635 25.2845 37.536 21.7032 35.7582 19.5096C32.747 15.7943 28.6885 21.6327 27.1174 24.0211C25.8606 25.9318 27.541 25.958 27.9338 26.1349C30.2903 22.2869 31.6996 21.0004 33.0088 21.2346C37.4601 22.0307 36.9364 37.1574 35.2345 39.5458C33.5325 41.9343 30.4441 38.8731 24.6836 26.1349C20.0752 15.9443 16.251 10.8036 13.2398 10.3541C11.0578 9.64645 5.63684 9.55788 3.01843 15.1839C-0.254584 22.2165 -0.244461 26.4095 0.278671 35.5651C0.786016 44.4445 5.77742 51.6208 11.407 50.9573Z" fill="white"/>
<ellipse cx="9.48365" cy="3.66338" rx="3.62385" ry="3.66338" fill="white"/>
<ellipse cx="32.9336" cy="11.9251" rx="3.62385" ry="3.66338" fill="white"/>
<path d="M47.5465 40.2724V32.2541H49.8043V34.735H52.6511V36.8785H49.8043V40.1335C49.8043 41.2052 50.1577 41.7411 50.8645 41.7411C51.3095 41.7411 51.7611 41.5691 52.2192 41.2251L52.9064 42.9915C52.1865 43.5737 51.3161 43.8648 50.2952 43.8648C49.3397 43.8648 48.6394 43.5737 48.1944 42.9915C47.7625 42.3961 47.5465 41.4897 47.5465 40.2724Z" fill="white"/>
<path d="M61.4031 41.1655L62.051 42.7732C61.174 43.5141 60.0484 43.8846 58.6741 43.8846C57.2605 43.8846 56.1087 43.4546 55.2186 42.5945C54.3548 41.7477 53.9229 40.6164 53.9229 39.2006C53.9229 37.8775 54.3482 36.766 55.199 35.8663C56.0498 34.9665 57.182 34.5167 58.5956 34.5167C59.7605 34.5167 60.7487 34.907 61.5602 35.6877C62.3717 36.4683 62.7774 37.4607 62.7774 38.6648C62.7774 39.194 62.7316 39.6042 62.64 39.8953H56.2592C56.3508 40.5437 56.6322 41.0531 57.1034 41.4236C57.5877 41.794 58.1898 41.9793 58.9097 41.9793C59.8913 41.9793 60.7225 41.708 61.4031 41.1655ZM58.4974 36.422C57.2147 36.422 56.4424 37.0704 56.1807 38.3671H60.5196C60.5327 37.7981 60.3495 37.335 59.9699 36.9777C59.6034 36.6073 59.1126 36.422 58.4974 36.422Z" fill="white"/>
<path d="M64.596 41.2052V29.7731H66.8538V40.2724C66.8538 41.2383 67.109 41.7213 67.6195 41.7213C67.9074 41.7213 68.215 41.6022 68.5422 41.364L69.0134 43.1106C68.3982 43.6134 67.6195 43.8648 66.6771 43.8648C65.2897 43.8648 64.596 42.9783 64.596 41.2052Z" fill="white"/>
<path d="M77.3934 41.1655L78.0413 42.7732C77.1644 43.5141 76.0387 43.8846 74.6644 43.8846C73.2508 43.8846 72.099 43.4546 71.209 42.5945C70.3451 41.7477 69.9132 40.6164 69.9132 39.2006C69.9132 37.8775 70.3386 36.766 71.1893 35.8663C72.0401 34.9665 73.1723 34.5167 74.5859 34.5167C75.7508 34.5167 76.739 34.907 77.5505 35.6877C78.362 36.4683 78.7678 37.4607 78.7678 38.6648C78.7678 39.194 78.7219 39.6042 78.6303 39.8953H72.2495C72.3411 40.5437 72.6226 41.0531 73.0938 41.4236C73.578 41.794 74.1801 41.9793 74.9 41.9793C75.8817 41.9793 76.7128 41.708 77.3934 41.1655ZM74.4877 36.422C73.205 36.422 72.4328 37.0704 72.171 38.3671H76.5099C76.523 37.7981 76.3398 37.335 75.9602 36.9777C75.5937 36.6073 75.1029 36.422 74.4877 36.422Z" fill="white"/>
<path d="M87.2237 40.6694L88.2839 42.3365C87.5378 43.3686 86.3664 43.8846 84.7695 43.8846C83.3428 43.8846 82.1845 43.4546 81.2945 42.5945C80.4175 41.7477 79.979 40.6164 79.979 39.2006C79.979 37.8643 80.411 36.7528 81.2748 35.8663C82.1387 34.9665 83.2316 34.5167 84.5536 34.5167C86.1242 34.5167 87.3088 34.9202 88.1072 35.7274L87.047 37.5335C86.4449 36.9513 85.7119 36.6602 84.8481 36.6602C84.1936 36.6602 83.6177 36.8984 83.1203 37.3747C82.6361 37.8246 82.3939 38.4332 82.3939 39.2006C82.3939 39.9681 82.6426 40.59 83.14 41.0663C83.6635 41.5294 84.2656 41.761 84.9462 41.761C85.8232 41.761 86.5823 41.3971 87.2237 40.6694Z" fill="white"/>
<path d="M90.3825 42.5747C89.5055 41.6882 89.0671 40.5635 89.0671 39.2006C89.0671 37.8378 89.5055 36.7197 90.3825 35.8464C91.2594 34.9599 92.4243 34.5167 93.8772 34.5167C95.317 34.5167 96.4753 34.9599 97.3523 35.8464C98.2423 36.7197 98.6873 37.8378 98.6873 39.2006C98.6873 40.5503 98.2423 41.675 97.3523 42.5747C96.4622 43.448 95.3039 43.8846 93.8772 43.8846C92.4243 43.8846 91.2594 43.448 90.3825 42.5747ZM92.1691 37.3747C91.711 37.851 91.4819 38.4597 91.4819 39.2006C91.4819 39.9416 91.7044 40.5569 92.1495 41.0465C92.6076 41.5228 93.1835 41.761 93.8772 41.761C94.584 41.761 95.1599 41.5228 95.6049 41.0465C96.063 40.5701 96.2921 39.9548 96.2921 39.2006C96.2921 38.4597 96.063 37.851 95.6049 37.3747C95.1468 36.8984 94.5709 36.6602 93.8772 36.6602C93.1966 36.6602 92.6272 36.8984 92.1691 37.3747Z" fill="white"/>
<path d="M114.051 37.8312V43.6663H111.793V38.4266C111.793 37.2887 111.289 36.7197 110.281 36.7197C109.417 36.7197 108.809 37.0637 108.455 37.7518C108.455 37.7783 108.455 37.8841 108.455 38.0693C108.468 38.2414 108.475 38.3538 108.475 38.4068V43.6663H106.217V38.2678C106.217 37.7915 106.086 37.4144 105.824 37.1365C105.576 36.8587 105.216 36.7197 104.745 36.7197C103.92 36.7197 103.305 37.0373 102.899 37.6724V43.6663H100.641V34.735H102.899V35.7274C103.58 34.9599 104.502 34.5762 105.667 34.5762C106.309 34.5762 106.852 34.7085 107.297 34.9732C107.755 35.2246 108.069 35.5686 108.239 36.0052C108.959 35.0525 109.954 34.5762 111.224 34.5762C113.108 34.5762 114.051 35.6612 114.051 37.8312Z" fill="white"/>
</svg>
