<svg width="115" height="51" viewBox="0 0 115 51" fill="none" xmlns="http://www.w3.org/2000/svg">
<path d="M11.407 50.9573C15.9107 50.4266 21.0078 40.917 23.3207 35.8305L22.0115 35.0344C21.7933 35.742 20.4405 38.617 16.251 44.4554C11.0142 51.7533 8.13394 47.3746 6.56289 44.4554C4.99184 41.5362 2.89712 26.8403 6.56289 18.0827C10.2287 9.32517 14.3175 16.898 16.251 19.5096C17.8654 21.6901 23.0044 31.411 25.4483 36.0551C28.2849 40.7877 34.3442 48.5953 37.5911 40.7401C39.2533 36.7184 39.3469 33.0528 39.1489 29.8711C38.8635 25.2845 37.536 21.7032 35.7582 19.5096C32.747 15.7943 28.6885 21.6327 27.1174 24.0211C25.8606 25.9318 27.541 25.958 27.9338 26.1349C30.2903 22.2869 31.6996 21.0004 33.0088 21.2346C37.4601 22.0307 36.9364 37.1574 35.2345 39.5458C33.5325 41.9343 30.4441 38.8731 24.6836 26.1349C20.0752 15.9443 16.251 10.8036 13.2398 10.3541C11.0578 9.64645 5.63684 9.55788 3.01843 15.1839C-0.254584 22.2165 -0.244461 26.4095 0.278671 35.5651C0.786016 44.4445 5.77742 51.6208 11.407 50.9573Z" fill="url(#paint0_linear)"/>
<ellipse cx="9.48371" cy="3.66338" rx="3.62385" ry="3.66338" fill="#3C67FE"/>
<ellipse cx="32.9337" cy="11.9251" rx="3.62385" ry="3.66338" fill="#0466FE"/>
<path d="M47.5464 40.2724V32.2541H49.8042V34.735H52.651V36.8785H49.8042V40.1335C49.8042 41.2052 50.1576 41.7411 50.8644 41.7411C51.3094 41.7411 51.761 41.5691 52.2191 41.2251L52.9063 42.9915C52.1864 43.5737 51.316 43.8648 50.295 43.8648C49.3396 43.8648 48.6393 43.5737 48.1943 42.9915C47.7624 42.3961 47.5464 41.4897 47.5464 40.2724Z" fill="black"/>
<path d="M61.403 41.1655L62.0509 42.7732C61.1739 43.5141 60.0483 43.8846 58.674 43.8846C57.2604 43.8846 56.1086 43.4546 55.2185 42.5945C54.3547 41.7477 53.9227 40.6164 53.9227 39.2006C53.9227 37.8775 54.3481 36.766 55.1989 35.8663C56.0497 34.9665 57.1818 34.5167 58.5954 34.5167C59.7603 34.5167 60.7485 34.907 61.56 35.6877C62.3716 36.4683 62.7773 37.4607 62.7773 38.6648C62.7773 39.194 62.7315 39.6042 62.6399 39.8953H56.2591C56.3507 40.5437 56.6321 41.0531 57.1033 41.4236C57.5876 41.794 58.1897 41.9793 58.9096 41.9793C59.8912 41.9793 60.7224 41.708 61.403 41.1655ZM58.4973 36.422C57.2146 36.422 56.4423 37.0704 56.1805 38.3671H60.5195C60.5326 37.7981 60.3493 37.335 59.9698 36.9777C59.6033 36.6073 59.1124 36.422 58.4973 36.422Z" fill="black"/>
<path d="M64.5958 41.2052V29.7731H66.8536V40.2724C66.8536 41.2383 67.1089 41.7213 67.6193 41.7213C67.9073 41.7213 68.2149 41.6022 68.5421 41.364L69.0133 43.1106C68.3981 43.6134 67.6193 43.8648 66.6769 43.8648C65.2895 43.8648 64.5958 42.9783 64.5958 41.2052Z" fill="black"/>
<path d="M77.3933 41.1655L78.0412 42.7732C77.1642 43.5141 76.0386 43.8846 74.6643 43.8846C73.2507 43.8846 72.0989 43.4546 71.2088 42.5945C70.345 41.7477 69.9131 40.6164 69.9131 39.2006C69.9131 37.8775 70.3384 36.766 71.1892 35.8663C72.04 34.9665 73.1722 34.5167 74.5858 34.5167C75.7507 34.5167 76.7389 34.907 77.5504 35.6877C78.3619 36.4683 78.7676 37.4607 78.7676 38.6648C78.7676 39.194 78.7218 39.6042 78.6302 39.8953H72.2494C72.341 40.5437 72.6224 41.0531 73.0936 41.4236C73.5779 41.794 74.18 41.9793 74.8999 41.9793C75.8815 41.9793 76.7127 41.708 77.3933 41.1655ZM74.4876 36.422C73.2049 36.422 72.4326 37.0704 72.1709 38.3671H76.5098C76.5229 37.7981 76.3397 37.335 75.9601 36.9777C75.5936 36.6073 75.1028 36.422 74.4876 36.422Z" fill="black"/>
<path d="M87.2236 40.6694L88.2837 42.3365C87.5377 43.3686 86.3662 43.8846 84.7694 43.8846C83.3427 43.8846 82.1844 43.4546 81.2943 42.5945C80.4174 41.7477 79.9789 40.6164 79.9789 39.2006C79.9789 37.8643 80.4108 36.7528 81.2747 35.8663C82.1386 34.9665 83.2315 34.5167 84.5534 34.5167C86.1241 34.5167 87.3086 34.9202 88.1071 35.7274L87.0469 37.5335C86.4448 36.9513 85.7118 36.6602 84.8479 36.6602C84.1935 36.6602 83.6176 36.8984 83.1202 37.3747C82.6359 37.8246 82.3938 38.4332 82.3938 39.2006C82.3938 39.9681 82.6425 40.59 83.1399 41.0663C83.6634 41.5294 84.2655 41.761 84.9461 41.761C85.8231 41.761 86.5822 41.3971 87.2236 40.6694Z" fill="black"/>
<path d="M90.3824 42.5747C89.5054 41.6882 89.0669 40.5635 89.0669 39.2006C89.0669 37.8378 89.5054 36.7197 90.3824 35.8464C91.2593 34.9599 92.4242 34.5167 93.8771 34.5167C95.3168 34.5167 96.4752 34.9599 97.3521 35.8464C98.2422 36.7197 98.6872 37.8378 98.6872 39.2006C98.6872 40.5503 98.2422 41.675 97.3521 42.5747C96.4621 43.448 95.3037 43.8846 93.8771 43.8846C92.4242 43.8846 91.2593 43.448 90.3824 42.5747ZM92.169 37.3747C91.7109 37.851 91.4818 38.4597 91.4818 39.2006C91.4818 39.9416 91.7043 40.5569 92.1493 41.0465C92.6074 41.5228 93.1834 41.761 93.8771 41.761C94.5839 41.761 95.1598 41.5228 95.6048 41.0465C96.0629 40.5701 96.292 39.9548 96.292 39.2006C96.292 38.4597 96.0629 37.851 95.6048 37.3747C95.1467 36.8984 94.5708 36.6602 93.8771 36.6602C93.1964 36.6602 92.6271 36.8984 92.169 37.3747Z" fill="black"/>
<path d="M114.051 37.8312V43.6663H111.793V38.4266C111.793 37.2887 111.289 36.7197 110.281 36.7197C109.417 36.7197 108.809 37.0637 108.455 37.7518C108.455 37.7783 108.455 37.8841 108.455 38.0693C108.468 38.2414 108.475 38.3538 108.475 38.4068V43.6663H106.217V38.2678C106.217 37.7915 106.086 37.4144 105.824 37.1365C105.576 36.8587 105.216 36.7197 104.745 36.7197C103.92 36.7197 103.305 37.0373 102.899 37.6724V43.6663H100.641V34.735H102.899V35.7274C103.58 34.9599 104.502 34.5762 105.667 34.5762C106.309 34.5762 106.852 34.7085 107.297 34.9732C107.755 35.2246 108.069 35.5686 108.239 36.0052C108.959 35.0525 109.954 34.5762 111.223 34.5762C113.108 34.5762 114.051 35.6612 114.051 37.8312Z" fill="black"/>
<defs>
<linearGradient id="paint0_linear" x1="8.33521" y1="10.9594" x2="38.7235" y2="44.7017" gradientUnits="userSpaceOnUse">
<stop stop-color="#3C67FE"/>
<stop offset="0.473958" stop-color="#0166FE"/>
<stop offset="0.854167" stop-color="#A42CEE"/>
</linearGradient>
</defs>
</svg>
